<svg width="132" height="59.8" viewBox="0 0 220 92" fill="none" xmlns="http://www.w3.org/2000/svg">
<g clip-path="url(#clip0_11_142)">
<path d="M45.9519 91.9039C20.6038 91.8361 0 71.3001 0 45.9519C0 20.536 20.536 0 45.9519 0C71.3001 0 91.9039 20.536 91.9039 45.9519C91.8361 71.3001 71.3001 91.8361 45.9519 91.9039ZM45.9519 2.7788C22.0949 2.7788 2.7788 22.0949 2.7788 45.9519C2.7788 57.406 7.31978 68.3857 15.4529 76.451C32.329 93.3272 59.6426 93.3272 76.5188 76.451C93.3949 59.5749 93.3949 32.2612 76.5188 15.3851C68.4535 7.31978 57.4738 2.71103 45.9519 2.7788Z" fill="black"/>
<path d="M48.3241 47.5108L60.7948 59.9815C61.4048 60.8626 61.2693 62.0826 60.3882 62.6925C59.7104 63.167 58.7616 63.167 58.0838 62.6925L46.0197 50.6962L33.8879 62.7603C33.1423 63.5059 31.8546 63.5059 31.1091 62.7603L30.9057 62.557C30.1602 61.8115 30.1602 60.5237 30.9057 59.7782L43.3765 47.3075C42.1565 45.6131 40.191 43.7153 36.9378 43.6476C35.7178 43.7153 34.4978 43.2409 33.549 42.4276C33.4812 42.3598 33.3457 42.2243 33.3457 42.2243L26.6359 33.7523L27.4492 32.939L35.65 41.6143L36.5989 40.6654L28.1269 32.2612L28.8047 31.5835L37.3444 39.9877L38.1577 39.1744L29.6858 30.7024L30.4991 29.9569L38.971 38.4288L39.9199 37.48L31.1091 29.2791L31.8546 28.5336L39.9199 34.8367C39.9199 34.8367 40.191 35.1078 40.3266 35.1756C41.411 36.26 41.9532 37.7511 41.7499 39.2421C41.8854 41.9532 43.3765 44.3931 45.6808 45.6808C47.8497 44.4609 50.2218 42.5632 50.4929 40.801C49.3407 38.6999 49.6796 34.5656 52.7973 31.4479C55.915 28.3302 60.3882 27.1781 63.4381 30.0924L63.5059 30.1602C66.4202 33.2101 65.268 37.6833 62.1503 40.801C59.0327 43.9187 55.0339 44.3253 52.8651 43.1731C51.2385 43.4442 49.5441 45.4775 48.3241 47.5108Z" fill="black"/>
<path d="M148.971 29.6858H141.516V33.2101H148.429V36.26H141.516V42.0209H137.585V26.6358H148.971V29.6858Z" fill="black"/>
<path d="M159.68 26.5003C161.848 26.4325 164.017 27.2458 165.644 28.7369C167.203 30.1602 168.084 32.1935 168.016 34.2945C168.084 36.3956 167.203 38.4966 165.644 39.9199C162.255 42.902 157.172 42.902 153.783 39.9199C152.224 38.4966 151.343 36.3956 151.411 34.2945C151.343 32.1935 152.224 30.1602 153.783 28.7369C155.342 27.1781 157.443 26.4325 159.68 26.5003ZM159.68 29.7535C158.527 29.7535 157.375 30.228 156.63 31.0413C155.816 31.9224 155.342 33.0745 155.342 34.2945C155.342 35.5145 155.749 36.6667 156.63 37.5477C157.443 38.4288 158.527 38.9033 159.68 38.9033C160.832 38.9033 161.916 38.4288 162.662 37.5477C163.475 36.6667 163.949 35.5145 163.882 34.2945C163.882 33.0745 163.475 31.9224 162.662 31.0413C161.916 30.228 160.832 29.7535 159.68 29.7535Z" fill="black"/>
<path d="M178.928 26.5003C181.097 26.4325 183.266 27.2458 184.892 28.7369C186.451 30.1602 187.332 32.1935 187.264 34.2945C187.332 36.3956 186.451 38.4966 184.892 39.9199C181.503 42.902 176.42 42.902 173.031 39.9199C171.473 38.4966 170.592 36.3956 170.659 34.2945C170.592 32.1935 171.473 30.1602 173.031 28.7369C174.59 27.1781 176.759 26.4325 178.928 26.5003ZM178.928 29.7535C177.776 29.7535 176.624 30.228 175.878 31.0413C175.065 31.9224 174.59 33.0745 174.59 34.2945C174.59 35.5145 174.997 36.6667 175.878 37.5477C176.691 38.4288 177.776 38.9033 178.928 38.9033C180.08 38.9033 181.165 38.4288 181.91 37.5477C182.723 36.6667 183.198 35.5145 183.13 34.2945C183.13 33.0745 182.723 31.9224 181.91 31.0413C181.165 30.228 180.08 29.7535 178.928 29.7535Z" fill="black"/>
<path d="M190.789 26.6359H197.431C199.599 26.5681 201.701 27.3136 203.327 28.7369C204.818 30.1602 205.699 32.1935 205.632 34.2945C205.699 36.3956 204.886 38.4288 203.327 39.8521C201.701 41.3432 199.532 42.0887 197.295 42.0209H190.856L190.789 26.6359ZM194.72 29.7535V38.9033H197.498C198.651 38.971 199.735 38.4966 200.481 37.6833C201.294 36.8022 201.701 35.5822 201.633 34.3623C201.701 33.1423 201.226 31.9901 200.413 31.0413C199.599 30.1602 198.515 29.7535 197.363 29.7535H194.72Z" fill="black"/>
<path d="M130.265 50.6285C132.569 50.6285 134.806 51.5773 136.433 53.2039L134.196 55.915C133.721 55.305 133.112 54.8306 132.434 54.4239C131.824 54.085 131.078 53.8817 130.333 53.8817C129.181 53.8817 128.096 54.3561 127.283 55.1694C126.469 56.0505 126.063 57.1349 126.063 58.2871C125.995 59.5071 126.469 60.6593 127.283 61.5404C128.096 62.4215 129.181 62.8281 130.333 62.8281C131.01 62.8281 131.756 62.6248 132.366 62.3537C133.044 62.0148 133.654 61.6081 134.196 60.9982L136.5 63.4381C135.619 64.3192 134.67 64.9969 133.518 65.4714C132.434 65.9458 131.282 66.2169 130.129 66.2169C127.961 66.2847 125.86 65.4714 124.301 63.9803C122.742 62.4892 121.929 60.456 121.996 58.3549C121.929 56.2539 122.81 54.2206 124.368 52.7973C125.927 51.374 128.096 50.5607 130.265 50.6285Z" fill="black"/>
<path d="M151.818 53.8817H143.685V56.9316H151.004V59.9815H143.685V63.0992H152.089V66.1491H139.821V50.8318H151.818V53.8817Z" fill="black"/>
<path d="M170.32 66.1491H166.864L159.815 56.6605V66.1491H156.155V50.8318H159.612L166.728 60.3204V50.8318H170.388L170.32 66.1491Z" fill="black"/>
<path d="M186.722 53.9495H182.113V66.2169H178.182V53.9495H173.574V50.764H186.722V53.9495Z" fill="black"/>
<path d="M201.972 53.8817H193.839V56.9316H201.158V59.9815H193.839V63.0992H202.243V66.1491H189.975V50.8318H201.972V53.8817Z" fill="black"/>
<path d="M215.527 66.1491L213.222 61.8115H210.173V66.1491H206.242V50.8318H213.087C215.12 50.8318 216.679 51.3062 217.831 52.2551C218.983 53.2717 219.593 54.695 219.526 56.1861C219.526 58.5582 218.577 60.2526 216.747 61.1337L220 66.2169L215.527 66.1491ZM210.173 58.7615H213.155C213.9 58.8293 214.578 58.5582 215.12 58.1516C215.595 57.6771 215.866 56.9994 215.798 56.3216C215.866 55.6439 215.595 54.9661 215.12 54.4917C214.578 54.085 213.832 53.8139 213.155 53.8817H210.173V58.7615Z" fill="black"/>
</g>
<defs>
<clipPath id="clip0_11_142">
<rect width="220" height="91.9039" fill="white"/>
</clipPath>
</defs>
</svg>
