<svg width="300" height="300" viewBox="0 0 450 450" fill="none" xmlns="http://www.w3.org/2000/svg">
<path d="M225.004 450C164.927 450 108.367 426.621 65.923 384.085C23.3863 341.641 0 285.073 0 225.004C0 164.927 23.3863 108.367 65.923 65.923C108.367 23.3863 164.927 0 225.004 0C285.073 0 341.641 23.3863 384.085 65.923C426.621 108.46 450 164.927 450 225.004C450 285.073 426.621 341.641 384.085 384.085C341.641 426.621 285.073 450 225.004 450ZM225.004 13.4897C168.528 13.4897 115.383 35.5208 75.4556 75.4556C35.5286 115.383 13.4897 168.528 13.4897 225.004C13.4897 281.479 35.5286 334.625 75.4556 374.552C115.383 414.479 168.528 436.51 225.004 436.51C281.479 436.51 334.625 414.479 374.552 374.552C414.479 334.625 436.51 281.479 436.51 225.004C436.51 168.528 414.479 115.383 374.552 75.4556C334.625 35.5208 281.479 13.4897 225.004 13.4897Z" fill="#0F151C"/>
<path d="M231.896 133.596C239.4 141.123 266.472 168.18 266.472 168.18C266.495 168.203 266.542 168.226 266.557 168.242C268.648 170.333 268.648 173.74 266.557 175.831C264.466 177.922 261.059 177.922 258.968 175.831C258.945 175.792 258.93 175.769 258.906 175.753C258.906 175.753 234.405 151.244 225.561 142.401C216.253 151.724 192.023 175.962 192.023 175.962C192 175.978 191.977 176.024 191.961 176.04C189.847 178.177 186.393 178.177 184.264 176.04C184.163 175.939 183.745 175.521 183.637 175.413C181.507 173.283 181.507 169.829 183.637 167.723C183.66 167.7 183.698 167.677 183.722 167.661C183.722 167.661 209.811 141.564 218.22 133.139C214.79 128.501 209.315 123.126 200.472 123.041C200.448 123.041 200.425 123.041 200.402 123.041C197.041 123.142 193.649 122.019 190.954 119.649C190.769 119.487 190.327 119.022 190.327 119.022L171.742 95.6049L173.98 93.3747L196.708 117.419L199.38 114.717L175.986 91.3459L177.953 89.4022L201.471 112.92L203.685 110.705L180.191 87.1642L182.343 85.0114L205.861 108.529L208.494 105.896L184.225 83.1297L186.269 81.1008L208.641 98.5321C208.641 98.5321 209.462 99.229 209.733 99.5001C212.807 102.574 214.124 106.733 213.682 110.744C214.287 120.78 220.056 125.783 224.655 128.601C230.595 125.194 237.224 119.967 238.037 115.135C234.885 109.242 235.845 97.8894 244.48 89.255C253.052 80.6826 265.574 77.4612 273.922 85.5535C273.96 85.5922 274.084 85.7161 274.131 85.7626C282.223 94.1259 278.978 106.648 270.429 115.22C261.795 123.854 250.442 124.815 244.542 121.663C240.089 122.391 235.28 128.082 231.896 133.596Z" fill="#0F151C"/>
<path d="M165.322 223.717H145.034V233.35H163.712V241.683H145.034V257.015H134.44V215.385H165.322V223.717Z" fill="#0F151C"/>
<path d="M194.287 215.013C200.745 215.013 206.119 217.027 210.394 221.053C214.684 225.08 216.837 230.114 216.837 236.138C216.837 242.209 214.676 247.289 210.363 251.378C206.065 255.451 200.706 257.48 194.287 257.48C187.859 257.48 182.501 255.459 178.21 251.409C173.936 247.344 171.799 242.256 171.799 236.138C171.799 230.067 173.936 225.034 178.21 221.022C182.501 217.019 187.859 215.013 194.287 215.013ZM194.41 223.903C191.143 223.903 188.37 225.08 186.078 227.434C183.786 229.788 182.64 232.716 182.64 236.2C182.64 239.693 183.794 242.635 186.109 245.028C188.417 247.429 191.174 248.621 194.38 248.621C197.601 248.621 200.327 247.429 202.557 245.028C204.803 242.635 205.933 239.693 205.933 236.2C205.933 232.716 204.803 229.788 202.557 227.434C200.327 225.08 197.609 223.903 194.41 223.903Z" fill="#0F151C"/>
<path d="M246.325 215.013C252.783 215.013 258.157 217.027 262.432 221.053C266.722 225.08 268.875 230.114 268.875 236.138C268.875 242.209 266.714 247.289 262.401 251.378C258.103 255.451 252.744 257.48 246.325 257.48C239.897 257.48 234.539 255.459 230.249 251.409C225.974 247.344 223.837 242.256 223.837 236.138C223.837 230.067 225.974 225.034 230.249 221.022C234.539 217.019 239.897 215.013 246.325 215.013ZM246.449 223.903C243.181 223.903 240.409 225.08 238.116 227.434C235.824 229.788 234.678 232.716 234.678 236.2C234.678 239.693 235.832 242.635 238.147 245.028C240.455 247.429 243.212 248.621 246.418 248.621C249.639 248.621 252.365 247.429 254.595 245.028C256.841 242.635 257.971 239.693 257.971 236.2C257.971 232.716 256.841 229.788 254.595 227.434C252.365 225.08 249.647 223.903 246.449 223.903Z" fill="#0F151C"/>
<path d="M278.601 215.385H296.505C303.048 215.385 308.376 217.305 312.488 221.146C316.592 224.987 318.652 230.005 318.652 236.2C318.652 242.356 316.561 247.367 312.395 251.223C308.221 255.087 302.793 257.015 296.102 257.015H278.601V215.385ZM289.194 223.841V248.559H296.752C299.989 248.559 302.653 247.429 304.744 245.152C306.827 242.883 307.873 239.917 307.873 236.262C307.873 232.607 306.773 229.626 304.589 227.31C302.421 225.003 299.649 223.841 296.288 223.841H289.194Z" fill="#0F151C"/>
<path d="M114.693 280.433C117.791 280.433 120.834 281.075 123.831 282.353C126.82 283.615 129.376 285.319 131.482 287.464L125.349 294.712C124.001 293.063 122.383 291.754 120.486 290.778C118.604 289.81 116.738 289.323 114.879 289.323C111.596 289.323 108.839 290.484 106.609 292.792C104.394 295.107 103.294 297.965 103.294 301.372C103.294 304.864 104.394 307.784 106.609 310.138C108.839 312.477 111.596 313.638 114.879 313.638C116.614 313.638 118.418 313.205 120.3 312.337C122.197 311.454 123.877 310.254 125.349 308.744L131.544 315.311C129.267 317.603 126.596 319.446 123.521 320.824C120.439 322.211 117.388 322.9 114.353 322.9C108.072 322.9 102.845 320.871 98.6791 316.798C94.5285 312.709 92.4531 307.613 92.4531 301.496C92.4531 295.51 94.5672 290.5 98.803 286.473C103.054 282.446 108.351 280.433 114.693 280.433Z" fill="#0F151C"/>
<path d="M173.114 289.137H151.09V297.407H170.946V305.709H151.09V314.103H173.764V322.435H140.497V280.805H173.114V289.137Z" fill="#0F151C"/>
<path d="M223.184 322.435H213.83L194.687 296.788V322.435H184.744V280.805H194.099L213.303 306.483V280.805H223.184V322.435Z" fill="#0F151C"/>
<path d="M267.495 289.323H254.919V322.435H244.357V289.323H231.905V280.743H267.495V289.323Z" fill="#0F151C"/>
<path d="M308.77 289.137H286.747V297.407H306.602V305.709H286.747V314.103H309.421V322.435H276.153V280.805H308.77V289.137Z" fill="#0F151C"/>
<path d="M345.522 322.435L339.327 310.727H330.994V322.435H320.401V280.805H339.017C344.53 280.805 348.79 282.067 351.81 284.583C354.822 287.108 356.332 290.678 356.332 295.301C356.332 301.744 353.808 306.204 348.774 308.682L357.509 322.435H345.522ZM330.994 302.394H339.017C341.325 302.394 343.113 301.829 344.376 300.691C345.653 299.537 346.296 297.864 346.296 295.673C346.296 293.528 345.653 291.909 344.376 290.809C343.113 289.694 341.325 289.137 339.017 289.137H330.994V302.394Z" fill="#0F151C"/>
<path d="M171.035 355.509C172.994 355.509 174.767 356.028 176.362 357.057L175.309 359.35C173.737 358.405 172.243 357.925 170.818 357.925C170.051 357.925 169.439 358.072 168.99 358.358C168.557 358.629 168.34 359.024 168.34 359.535C168.34 360.031 168.541 360.457 168.959 360.805C169.37 361.162 169.873 361.425 170.477 361.611C171.096 361.781 171.755 361.982 172.459 362.23C173.18 362.478 173.838 362.749 174.442 363.036C175.061 363.33 175.565 363.771 175.96 364.368C176.37 364.972 176.579 365.7 176.579 366.567C176.579 367.891 176.037 368.952 174.968 369.757C173.892 370.563 172.506 370.965 170.818 370.965C169.641 370.965 168.502 370.748 167.41 370.315C166.334 369.881 165.382 369.293 164.561 368.549L165.676 366.319C166.458 367.024 167.302 367.574 168.216 367.961C169.145 368.356 170.02 368.549 170.849 368.549C171.755 368.549 172.459 368.387 172.955 368.054C173.451 367.728 173.698 367.272 173.698 366.691C173.698 366.156 173.489 365.715 173.079 365.359C172.684 365.01 172.181 364.755 171.561 364.584C170.957 364.422 170.299 364.228 169.579 363.996C168.874 363.748 168.216 363.493 167.596 363.221C166.992 362.958 166.489 362.525 166.079 361.921C165.66 361.324 165.459 360.604 165.459 359.752C165.459 358.451 165.962 357.421 166.977 356.655C168.007 355.896 169.362 355.509 171.035 355.509Z" fill="#0F151C"/>
<path d="M180.038 354.858C180.324 354.572 180.673 354.425 181.091 354.425C181.501 354.425 181.842 354.572 182.113 354.858C182.4 355.152 182.547 355.509 182.547 355.942C182.547 356.399 182.4 356.771 182.113 357.057C181.842 357.328 181.501 357.46 181.091 357.46C180.673 357.46 180.324 357.328 180.038 357.057C179.767 356.771 179.635 356.399 179.635 355.942C179.635 355.509 179.767 355.152 180.038 354.858ZM182.33 370.872H179.852V359.257H182.33V370.872Z" fill="#0F151C"/>
<path d="M193.26 359.195C194.6 359.195 195.653 359.59 196.42 360.372C197.179 361.162 197.566 362.254 197.566 363.655V370.872H195.057V364.368C195.057 363.485 194.809 362.788 194.313 362.292C193.818 361.797 193.136 361.549 192.269 361.549C191.34 361.549 190.573 361.851 189.977 362.447C189.396 363.028 189.063 363.779 188.986 364.708V370.872H186.477V359.257H188.986V361.487C189.768 359.961 191.193 359.195 193.26 359.195Z" fill="#0F151C"/>
<path d="M206.1 359.195C208.206 359.195 209.801 359.83 210.901 361.084L209.538 362.695C208.671 361.812 207.563 361.378 206.223 361.394C205.209 361.394 204.38 361.75 203.745 362.447C203.103 363.129 202.785 364.019 202.785 365.111C202.785 366.187 203.103 367.078 203.745 367.775C204.38 368.456 205.209 368.797 206.223 368.797C207.71 368.797 208.841 368.332 209.631 367.403L211.025 368.797C209.948 370.245 208.307 370.965 206.1 370.965C204.38 370.965 202.979 370.431 201.887 369.355C200.811 368.263 200.276 366.838 200.276 365.08C200.276 363.33 200.811 361.913 201.887 360.836C202.979 359.745 204.38 359.195 206.1 359.195Z" fill="#0F151C"/>
<path d="M218.857 359.195C220.839 359.195 222.272 359.799 223.162 360.991C224.068 362.192 224.44 363.872 224.278 366.04H215.512C215.713 366.931 216.139 367.635 216.782 368.147C217.417 368.665 218.191 368.921 219.105 368.921C220.421 368.921 221.521 368.48 222.388 367.589L223.72 368.983C222.52 370.307 220.917 370.965 218.919 370.965C217.138 370.965 215.705 370.431 214.613 369.355C213.537 368.263 213.003 366.846 213.003 365.111C213.003 363.361 213.537 361.936 214.613 360.836C215.705 359.745 217.122 359.195 218.857 359.195ZM215.481 364.213H222.109C222.063 363.283 221.745 362.556 221.149 362.013C220.568 361.456 219.817 361.177 218.888 361.177C217.959 361.177 217.192 361.456 216.596 362.013C215.992 362.556 215.62 363.283 215.481 364.213Z" fill="#0F151C"/>
<path d="M237.824 355.509C239.264 355.509 240.433 355.865 241.324 356.562C242.23 357.243 242.687 358.173 242.687 359.35C242.687 360.674 241.758 362.346 239.899 364.368L235.934 368.549H243.368V370.872H232.527V368.983L238.133 362.943C239.372 361.688 239.992 360.612 239.992 359.721C239.992 359.102 239.76 358.622 239.311 358.265C238.877 357.917 238.257 357.739 237.452 357.739C236.066 357.739 234.672 358.382 233.27 359.659L232.248 357.677C234.045 356.237 235.903 355.509 237.824 355.509Z" fill="#0F151C"/>
<path d="M252.343 355.54C254.403 355.54 255.998 356.213 257.113 357.553C258.244 358.877 258.817 360.774 258.817 363.252C258.817 365.715 258.244 367.612 257.113 368.952C255.998 370.276 254.403 370.934 252.343 370.934C250.237 370.934 248.626 370.276 247.511 368.952C246.396 367.612 245.838 365.715 245.838 363.252C245.838 360.774 246.396 358.877 247.511 357.553C248.626 356.213 250.237 355.54 252.343 355.54ZM252.343 357.584C249.756 357.584 248.471 359.474 248.471 363.252C248.471 367.031 249.756 368.921 252.343 368.921C254.883 368.921 256.153 367.031 256.153 363.252C256.153 359.474 254.883 357.584 252.343 357.584Z" fill="#0F151C"/>
<path d="M266.567 355.509C268.007 355.509 269.177 355.865 270.067 356.562C270.973 357.243 271.43 358.173 271.43 359.35C271.43 360.674 270.501 362.346 268.642 364.368L264.677 368.549H272.111V370.872H261.27V368.983L266.877 362.943C268.116 361.688 268.735 360.612 268.735 359.721C268.735 359.102 268.503 358.622 268.054 358.265C267.62 357.917 267.001 357.739 266.195 357.739C264.809 357.739 263.415 358.382 262.014 359.659L260.991 357.677C262.788 356.237 264.646 355.509 266.567 355.509Z" fill="#0F151C"/>
<path d="M280.816 355.995C282.256 355.995 283.426 356.352 284.316 357.049C285.222 357.73 285.679 358.659 285.679 359.836C285.679 361.161 284.75 362.833 282.891 364.854L278.927 369.036H286.361V371.359H275.519V369.47L281.126 363.43C282.365 362.175 282.984 361.099 282.984 360.208C282.984 359.589 282.752 359.108 282.303 358.752C281.869 358.404 281.25 358.226 280.444 358.226C279.058 358.226 277.664 358.868 276.263 360.146L275.241 358.164C277.037 356.723 278.896 355.995 280.816 355.995Z" fill="#0F151C"/>
</svg>
